<?xml version="1.0" encoding="iso-8859-1"?>
<!-- Generator: Adobe Illustrator 19.0.0, SVG Export Plug-In . SVG Version: 6.00 Build 0)  -->
<svg version="1.1" fill="#27282c" xmlns="http://www.w3.org/2000/svg" xmlns:xlink="http://www.w3.org/1999/xlink" x="0px" y="0px"
	 viewBox="0 0 16 16" xml:space="preserve">

                    <path d="M14.094 3.801a3.093 3.093 0 0 0-4.373 0L6.653 6.87l.964.964 3.068-3.069A1.729 1.729 0 0 1 13.13 7.21l-3.068 3.069.964.964 3.068-3.068a3.093 3.093 0 0 0 0-4.374z"></path>
                    <path d="M5.313 11.618a1.729 1.729 0 0 1-2.445-2.445l3.068-3.068-.964-.964-3.068 3.068a3.092 3.092 0 0 0 4.373 4.374l3.069-3.069-.965-.964z"></path>

</svg>
